<svg width="2063" height="2549" viewBox="0 0 2063 2549" fill="none" xmlns="http://www.w3.org/2000/svg">
<path fill-rule="evenodd" clip-rule="evenodd" d="M1075.96 301.961C1268.25 331.571 1465.77 142.655 1643.94 220.817C1820.8 298.404 1951.71 498.96 1964.26 691.656C1976.89 885.635 1693.78 1010.57 1707.99 1204.44C1724.13 1424.54 2019.95 1543.04 2042.79 1762.55C2070.89 2032.8 2110.17 2472.32 1846.85 2539.46C1539.36 2617.87 1334.88 2192.51 1075.96 2009.07C963.751 1929.58 887.618 1790.78 752.677 1764.29C513.738 1717.39 193.387 1990.47 35.7724 1804.9C-106.302 1637.62 216.607 1415.37 277.187 1204.44C317.73 1063.27 316.721 920.88 331.626 774.767C357.397 522.151 182.751 164.999 397.115 28.8334C606.563 -104.21 830.706 264.198 1075.96 301.961Z" fill="#6E434D"/>
</svg>
